<?xml version="1.0" encoding="utf-8"?>
<!-- Generator: Adobe Illustrator 23.0.0, SVG Export Plug-In . SVG Version: 6.00 Build 0)  -->
<svg version="1.1" id="Слой_1" xmlns="http://www.w3.org/2000/svg" xmlns:xlink="http://www.w3.org/1999/xlink" x="0px" y="0px"
	 viewBox="0 0 704.73 464.44" style="enable-background:new 0 0 704.73 464.44;" xml:space="preserve">
<style type="text/css">
	.st0{opacity:0.2;}
	.st1{fill:#FCEE21;}
</style>
<g class="st0">
	<path class="st1" d="M316.76,464.44c-0.98,0-2.93,0-3.91-0.86c-5.86-1.71-9.77-5.99-10.75-11.12l-22.47-220.6l-32.24,15.39
		c-4.88,2.57-10.75,1.71-15.63-0.86L6.11,107.9c-4.88-3.42-6.84-8.55-5.86-13.68s5.86-9.41,12.7-9.41L687.99,0.16
		c5.86-0.86,11.72,1.71,14.65,5.99c2.93,4.28,2.93,10.26-0.98,14.54L328.49,459.31C326.53,462.73,321.65,464.44,316.76,464.44z
		 M306.99,213.92l20.52,203.5l308.7-363.39L306.99,213.92z M53.97,105.33L236.66,218.2L613.74,35.22L53.97,105.33z"/>
</g>
</svg>
